<svg width="750" height="750" viewBox="0 0 750 750" fill="none" xmlns="http://www.w3.org/2000/svg">
<g clip-path="url(#clip0_1621_14)">
<path d="M750 375C750 167.893 582.107 0 375 0C167.893 0 0 167.893 0 375C0 582.107 167.893 750 375 750C582.107 750 750 582.107 750 375Z" fill="white"/>
<path d="M275.747 416.068C325.455 421.292 361.516 465.824 356.291 515.532C351.067 565.24 306.535 601.301 256.827 596.076C207.119 590.851 171.058 546.32 176.283 496.612C181.507 446.904 226.039 410.843 275.747 416.068ZM274.719 147.932C334.964 115.735 428.819 136.437 457.23 214.297C481.935 281.998 474.761 468.929 504.383 472.044C534.005 475.157 607.582 381.521 595.485 496.614C589.827 550.444 484.001 649.153 421.607 553.224C397.485 516.136 383.54 254.871 365.216 243.282C338.699 226.516 309.984 364.676 252.572 358.645C181.802 351.21 171.765 202.954 274.719 147.932Z" fill="black"/>
</g>
<defs>
<clipPath id="clip0_1621_14">
<rect width="750" height="750" fill="white"/>
</clipPath>
</defs>
</svg>
