<svg width="422" height="461" viewBox="0 0 422 461" fill="none" xmlns="http://www.w3.org/2000/svg">
<path d="M99.9671 278.716C149.675 283.94 185.736 328.472 180.512 378.18C175.287 427.888 130.755 463.949 81.0475 458.724C31.3396 453.5 -4.72125 408.968 0.503051 359.26C5.72757 309.552 50.2591 273.491 99.9671 278.716ZM98.9394 14.5794C159.184 -17.6175 253.039 3.08516 281.45 80.9444C306.155 148.646 298.981 335.577 328.603 338.691C358.225 341.805 431.802 248.168 419.705 363.262C414.047 417.091 308.221 515.801 245.827 419.871C221.705 382.784 207.76 121.519 189.436 109.929C162.919 93.1634 134.204 231.324 76.7925 225.293C6.0225 217.858 -4.01518 69.6018 98.9394 14.5794Z" fill="white"/>
</svg>
